<svg width="28" height="27" viewBox="0 0 28 27" fill="none" xmlns="http://www.w3.org/2000/svg">
<path d="M3.5 21.9375H7V25.3125H3.5V21.9375ZM12.25 21.9375H15.75V25.3125H12.25V21.9375ZM21 21.9375H24.5V25.3125H21V21.9375ZM21.875 13.5H14.875V10.125H13.125V13.5H6.125C5.66087 13.5 5.21575 13.6778 4.88756 13.9943C4.55937 14.3107 4.375 14.7399 4.375 15.1875V20.25H6.125V15.1875H13.125V20.25H14.875V15.1875H21.875V20.25H23.625V15.1875C23.625 14.7399 23.4406 14.3107 23.1124 13.9943C22.7842 13.6778 22.3391 13.5 21.875 13.5ZM14 8.4375C13.3078 8.4375 12.6311 8.23956 12.0555 7.86871C11.4799 7.49786 11.0313 6.97076 10.7664 6.35406C10.5015 5.73736 10.4322 5.05876 10.5673 4.40407C10.7023 3.74939 11.0356 3.14802 11.5251 2.67602C12.0146 2.20401 12.6383 1.88258 13.3172 1.75235C13.9961 1.62213 14.6999 1.68896 15.3394 1.94441C15.9789 2.19985 16.5256 2.63244 16.9101 3.18745C17.2947 3.74247 17.5 4.39499 17.5 5.0625C17.4988 5.95726 17.1297 6.81506 16.4736 7.44775C15.8175 8.08045 14.9279 8.43639 14 8.4375ZM14 3.375C13.6539 3.375 13.3155 3.47397 13.0278 3.6594C12.74 3.84482 12.5157 4.10837 12.3832 4.41672C12.2508 4.72507 12.2161 5.06437 12.2836 5.39172C12.3511 5.71906 12.5178 6.01974 12.7626 6.25574C13.0073 6.49175 13.3191 6.65246 13.6586 6.71758C13.9981 6.78269 14.3499 6.74927 14.6697 6.62155C14.9895 6.49383 15.2628 6.27753 15.4551 6.00003C15.6474 5.72252 15.75 5.39626 15.75 5.0625C15.75 4.61495 15.5656 4.18573 15.2374 3.86926C14.9092 3.55279 14.4641 3.375 14 3.375Z" fill="#0E3672" fill-opacity="0.8"/>
</svg>
