<svg width="31" height="31" viewBox="0 0 31 31" fill="none" xmlns="http://www.w3.org/2000/svg">
<path d="M0.345703 15.4025C0.345703 16.0252 0.838382 16.4016 1.44842 16.4016C1.82485 16.4016 2.12322 16.2201 2.38285 15.9605L15.0458 4.42624C15.1881 4.28342 15.3442 4.23138 15.5125 4.23138C15.6686 4.23138 15.8114 4.28342 15.9664 4.42624L28.6166 15.9605C28.889 16.2201 29.1873 16.4016 29.551 16.4016C30.1605 16.4016 30.6537 16.0252 30.6537 15.4025C30.6537 15.0133 30.5109 14.767 30.2646 14.5461L25.7751 10.4596V2.79154C25.7751 2.22081 25.412 1.85767 24.8412 1.85767H23.1418C22.5838 1.85767 22.1946 2.22081 22.1946 2.79154V7.20295L17.0564 2.5059C16.6024 2.07799 16.0444 1.87095 15.4997 1.87095C14.9545 1.87095 14.4097 2.07854 13.9425 2.50645L0.734864 14.5461C0.501257 14.767 0.345703 15.0133 0.345703 15.4025ZM4.05629 26.2879C4.05629 28.0914 5.14627 29.1426 6.97527 29.1426H12.2303V19.9174C12.2303 19.3206 12.6322 18.932 13.229 18.932H17.8092C18.406 18.932 18.7951 19.3206 18.7951 19.9174V29.1426H24.0369C25.8659 29.1426 26.9431 28.0914 26.9431 26.2879V16.7908L15.9276 6.86527C15.7848 6.73574 15.6293 6.67097 15.4737 6.67097C15.3309 6.67097 15.1881 6.73574 15.0325 6.87856L4.05629 16.8556V26.2879Z" fill="#0E3672" fill-opacity="0.8"/>
</svg>
