<svg width="35" height="34" viewBox="0 0 35 34" fill="none" xmlns="http://www.w3.org/2000/svg">
<path d="M5.83338 26.9167L4.47713 26.3926C4.38023 26.6294 4.3509 26.8873 4.39224 27.139C4.43358 27.3907 4.54406 27.6269 4.71203 27.8227C4.88001 28.0185 5.09925 28.1667 5.34665 28.2516C5.59405 28.3365 5.86045 28.355 6.11776 28.3051L5.83338 26.9167ZM12.6963 25.5907L13.3876 24.3427L12.9253 24.1018L12.4119 24.201L12.6963 25.5907ZM8.20172 21.1325L9.55797 21.6567L9.79568 21.0702L9.50984 20.5049L8.20172 21.1325ZM27.7084 17.0001C27.7084 21.5986 23.5478 25.5001 18.1855 25.5001V28.3334C24.9536 28.3334 30.6251 23.3552 30.6251 17.0001H27.7084ZM8.66401 17.0001C8.66401 12.4016 12.8261 8.50008 18.1869 8.50008V5.66675C11.4188 5.66675 5.74588 10.6449 5.74588 17.0001H8.66401ZM18.1869 8.50008C23.5478 8.50008 27.7084 12.4016 27.7084 17.0001H30.6251C30.6251 10.6449 24.9551 5.66675 18.1869 5.66675V8.50008ZM18.1855 25.5001C16.4282 25.5001 14.7919 25.0751 13.3876 24.3427L12.0051 26.8374C13.9057 27.8272 16.0289 28.3414 18.1855 28.3334V25.5001ZM6.11776 28.3051L12.9807 26.9791L12.4119 24.201L5.54901 25.527L6.11776 28.3065V28.3051ZM9.50984 20.5049C8.95466 19.4152 8.66622 18.216 8.66401 17.0001H5.74588C5.74588 18.7001 6.15713 20.3122 6.89213 21.7601L9.50984 20.5049ZM6.84693 20.6083L4.47713 26.394L7.18672 27.4395L9.55505 21.6552L6.84547 20.6083H6.84693Z" fill="#0E3672" fill-opacity="0.8"/>
<path d="M13.1253 18.4168C13.9307 18.4168 14.5837 17.7826 14.5837 17.0002C14.5837 16.2178 13.9307 15.5835 13.1253 15.5835C12.3199 15.5835 11.667 16.2178 11.667 17.0002C11.667 17.7826 12.3199 18.4168 13.1253 18.4168Z" fill="#0E3672" fill-opacity="0.8"/>
<path d="M18.2288 18.4168C19.0343 18.4168 19.6872 17.7826 19.6872 17.0002C19.6872 16.2178 19.0343 15.5835 18.2288 15.5835C17.4234 15.5835 16.7705 16.2178 16.7705 17.0002C16.7705 17.7826 17.4234 18.4168 18.2288 18.4168Z" fill="#0E3672" fill-opacity="0.8"/>
<path d="M23.3333 18.4168C24.1387 18.4168 24.7917 17.7826 24.7917 17.0002C24.7917 16.2178 24.1387 15.5835 23.3333 15.5835C22.5279 15.5835 21.875 16.2178 21.875 17.0002C21.875 17.7826 22.5279 18.4168 23.3333 18.4168Z" fill="#0E3672" fill-opacity="0.8"/>
</svg>
