<svg width="37" height="34" viewBox="0 0 37 34" fill="none" xmlns="http://www.w3.org/2000/svg">
<path d="M23.8958 19.8333H22.6779L22.2463 19.4508C23.8094 17.7849 24.6685 15.658 24.6667 13.4583C24.6667 11.6371 24.079 9.85676 22.9779 8.34246C21.8768 6.82816 20.3117 5.6479 18.4806 4.95095C16.6496 4.25399 14.6347 4.07163 12.6909 4.42694C10.747 4.78225 8.96148 5.65925 7.56004 6.94706C6.1586 8.23487 5.20421 9.87564 4.81755 11.6619C4.4309 13.4481 4.62934 15.2996 5.3878 16.9822C6.14625 18.6648 7.43064 20.103 9.07856 21.1148C10.7265 22.1266 12.6639 22.6667 14.6458 22.6667C17.1279 22.6667 19.4096 21.8308 21.1671 20.4425L21.5833 20.8392V21.9583L29.2917 29.0275L31.5888 26.9167L23.8958 19.8333ZM14.6458 19.8333C10.8071 19.8333 7.70834 16.9858 7.70834 13.4583C7.70834 9.93084 10.8071 7.08334 14.6458 7.08334C18.4846 7.08334 21.5833 9.93084 21.5833 13.4583C21.5833 16.9858 18.4846 19.8333 14.6458 19.8333Z" fill="#0E3672" fill-opacity="0.8"/>
</svg>
