<svg width="31" height="29" viewBox="0 0 31 29" fill="none" xmlns="http://www.w3.org/2000/svg">
<path d="M5.15 5H25.85C26.155 5 26.4475 5.11706 26.6632 5.32544C26.8788 5.53381 27 5.81643 27 6.11111V23.8889C27 24.1836 26.8788 24.4662 26.6632 24.6746C26.4475 24.8829 26.155 25 25.85 25H5.15C4.845 25 4.55249 24.8829 4.33683 24.6746C4.12116 24.4662 4 24.1836 4 23.8889V6.11111C4 5.81643 4.12116 5.53381 4.33683 5.32544C4.55249 5.11706 4.845 5 5.15 5ZM20.6348 18.9289L24.7 15L20.6348 11.0711L19.0075 12.6444L21.4478 15L19.0075 17.3567L20.6348 18.9289ZM9.5522 15L11.9925 12.6433L10.3664 11.0711L6.3 15L10.3664 18.9289L11.9925 17.3556L9.5522 15ZM14.6306 20.5556L18.8166 9.44444H16.3694L12.1834 20.5556H14.6306Z" fill="#0E3672" fill-opacity="0.8"/>
</svg>
