<svg width="341" height="115" viewBox="0 0 341 115" fill="none" xmlns="http://www.w3.org/2000/svg">
<path fill-rule="evenodd" clip-rule="evenodd" d="M8 1H332.995C336.861 1 339.995 4.13401 339.995 8V56.9993L1 56.05V8C1 4.13401 4.13401 1 8 1ZM1 57.05L339.995 57.9993V107C339.995 110.866 336.861 114 332.995 114H8C4.13401 114 1 110.866 1 107V57.05ZM340.995 57.7404V107C340.995 111.418 337.413 115 332.995 115H8C3.58172 115 0 111.418 0 107V57.0472V8C0 3.58172 3.58172 0 8 0H332.995C337.413 0 340.995 3.58172 340.995 8V57.0021L340.997 57.0021L340.995 57.7404Z" fill="#0E3672" fill-opacity="0.4"/>
</svg>
